<svg width="691" height="128" viewBox="0 0 691 128" fill="none" xmlns="http://www.w3.org/2000/svg">
<path d="M636.545 82V124H625.818V54.1818H636.182V65.0909H637.091C638.727 61.5455 641.212 58.697 644.545 56.5455C647.879 54.3636 652.182 53.2727 657.455 53.2727C662.182 53.2727 666.318 54.2424 669.864 56.1818C673.409 58.0909 676.167 61 678.136 64.9091C680.106 68.7879 681.091 73.697 681.091 79.6364V124H670.364V80.3636C670.364 74.8788 668.939 70.6061 666.091 67.5455C663.242 64.4545 659.333 62.9091 654.364 62.9091C650.939 62.9091 647.879 63.6515 645.182 65.1364C642.515 66.6212 640.409 68.7879 638.864 71.6364C637.318 74.4848 636.545 77.9394 636.545 82Z" fill="white"/>
<path d="M8.09091 124V30.9091H27.7727V107.773H67.6818V124H8.09091ZM80.3523 124V54.1818H99.7159V124H80.3523ZM90.0795 45.1818C87.2008 45.1818 84.7311 44.2273 82.6705 42.3182C80.6402 40.3788 79.625 38.0606 79.625 35.3636C79.625 32.697 80.6402 30.4091 82.6705 28.5C84.7311 26.5606 87.2008 25.5909 90.0795 25.5909C92.9583 25.5909 95.4129 26.5606 97.4432 28.5C99.5038 30.4091 100.534 32.697 100.534 35.3636C100.534 38.0606 99.5038 40.3788 97.4432 42.3182C95.4129 44.2273 92.9583 45.1818 90.0795 45.1818ZM152.773 54.1818V68.7273H109.682V54.1818H152.773ZM119.545 124V49.1364C119.545 44.0758 120.53 39.8788 122.5 36.5454C124.5 33.2121 127.227 30.7121 130.682 29.0454C134.136 27.3788 138.061 26.5454 142.455 26.5454C145.424 26.5454 148.136 26.7727 150.591 27.2273C153.076 27.6818 154.924 28.0909 156.136 28.4545L152.682 43C151.924 42.7576 150.985 42.5303 149.864 42.3182C148.773 42.1061 147.652 42 146.5 42C143.652 42 141.667 42.6667 140.545 44C139.424 45.303 138.864 47.1364 138.864 49.5V124H119.545ZM193.92 125.364C186.739 125.364 180.557 123.909 175.375 121C170.223 118.061 166.254 113.909 163.466 108.545C160.678 103.152 159.284 96.7727 159.284 89.4091C159.284 82.2273 160.678 75.9242 163.466 70.5C166.254 65.0758 170.178 60.8485 175.239 57.8182C180.33 54.7879 186.299 53.2727 193.148 53.2727C197.754 53.2727 202.042 54.0152 206.011 55.5C210.011 56.9545 213.496 59.1515 216.466 62.0909C219.466 65.0303 221.799 68.7273 223.466 73.1818C225.133 77.6061 225.966 82.7879 225.966 88.7273V94.0455H167.011V82.0455H207.739C207.739 79.2576 207.133 76.7879 205.92 74.6364C204.708 72.4848 203.027 70.803 200.875 69.5909C198.754 68.3485 196.284 67.7273 193.466 67.7273C190.527 67.7273 187.92 68.4091 185.648 69.7727C183.405 71.1061 181.648 72.9091 180.375 75.1818C179.102 77.4242 178.451 79.9242 178.42 82.6818V94.0909C178.42 97.5455 179.057 100.53 180.33 103.045C181.633 105.561 183.466 107.5 185.83 108.864C188.193 110.227 190.996 110.909 194.239 110.909C196.39 110.909 198.36 110.606 200.148 110C201.936 109.394 203.466 108.485 204.739 107.273C206.011 106.061 206.981 104.576 207.648 102.818L225.557 104C224.648 108.303 222.784 112.061 219.966 115.273C217.178 118.455 213.572 120.939 209.148 122.727C204.754 124.485 199.678 125.364 193.92 125.364Z" fill="#8BF688"/>
<path d="M242.148 124V30.9091H274.693C281.178 30.9091 286.527 32.0303 290.739 34.2727C294.951 36.4848 298.087 39.4697 300.148 43.2273C302.208 46.9545 303.239 51.0909 303.239 55.6364C303.239 59.6364 302.527 62.9394 301.102 65.5455C299.708 68.1515 297.86 70.2121 295.557 71.7273C293.284 73.2424 290.814 74.3636 288.148 75.0909V76C290.996 76.1818 293.86 77.1818 296.739 79C299.617 80.8182 302.027 83.4242 303.966 86.8182C305.905 90.2121 306.875 94.3636 306.875 99.2727C306.875 103.939 305.814 108.136 303.693 111.864C301.572 115.591 298.223 118.545 293.648 120.727C289.072 122.909 283.117 124 275.784 124H242.148ZM253.42 114H275.784C283.148 114 288.375 112.576 291.466 109.727C294.587 106.848 296.148 103.364 296.148 99.2727C296.148 96.1212 295.345 93.2121 293.739 90.5455C292.133 87.8485 289.845 85.697 286.875 84.0909C283.905 82.4545 280.39 81.6364 276.33 81.6364H253.42V114ZM253.42 71.8182H274.33C277.723 71.8182 280.784 71.1515 283.511 69.8182C286.269 68.4848 288.451 66.6061 290.057 64.1818C291.693 61.7576 292.511 58.9091 292.511 55.6364C292.511 51.5455 291.087 48.0758 288.239 45.2273C285.39 42.3485 280.875 40.9091 274.693 40.9091H253.42V71.8182ZM353.216 125.455C346.489 125.455 340.686 123.97 335.807 121C330.958 118 327.216 113.818 324.58 108.455C321.973 103.061 320.67 96.7879 320.67 89.6364C320.67 82.4848 321.973 76.1818 324.58 70.7273C327.216 65.2424 330.883 60.9697 335.58 57.9091C340.307 54.8182 345.822 53.2727 352.125 53.2727C355.761 53.2727 359.352 53.8788 362.898 55.0909C366.443 56.303 369.67 58.2727 372.58 61C375.489 63.697 377.807 67.2727 379.534 71.7273C381.261 76.1818 382.125 81.6667 382.125 88.1818V92.7273H328.307V83.4545H371.216C371.216 79.5151 370.428 76 368.852 72.9091C367.307 69.8182 365.095 67.3788 362.216 65.5909C359.367 63.803 356.004 62.9091 352.125 62.9091C347.852 62.9091 344.155 63.9697 341.034 66.0909C337.943 68.1818 335.564 70.9091 333.898 74.2727C332.231 77.6364 331.398 81.2424 331.398 85.0909V91.2727C331.398 96.5455 332.307 101.015 334.125 104.682C335.973 108.318 338.534 111.091 341.807 113C345.08 114.879 348.883 115.818 353.216 115.818C356.034 115.818 358.58 115.424 360.852 114.636C363.155 113.818 365.14 112.606 366.807 111C368.473 109.364 369.761 107.333 370.67 104.909L381.034 107.818C379.943 111.333 378.11 114.424 375.534 117.091C372.958 119.727 369.777 121.788 365.989 123.273C362.201 124.727 357.943 125.455 353.216 125.455ZM418.989 125.636C414.564 125.636 410.549 124.803 406.943 123.136C403.337 121.439 400.473 119 398.352 115.818C396.231 112.606 395.17 108.727 395.17 104.182C395.17 100.182 395.958 96.9394 397.534 94.4545C399.11 91.9394 401.216 89.9697 403.852 88.5455C406.489 87.1212 409.398 86.0606 412.58 85.3636C415.792 84.6364 419.019 84.0606 422.261 83.6364C426.504 83.0909 429.943 82.6818 432.58 82.4091C435.246 82.1061 437.186 81.6061 438.398 80.9091C439.64 80.2121 440.261 79 440.261 77.2727V76.9091C440.261 72.4242 439.034 68.9394 436.58 66.4545C434.155 63.9697 430.473 62.7273 425.534 62.7273C420.413 62.7273 416.398 63.8485 413.489 66.0909C410.58 68.3333 408.534 70.7273 407.352 73.2727L397.17 69.6364C398.989 65.3939 401.413 62.0909 404.443 59.7273C407.504 57.3333 410.837 55.6667 414.443 54.7273C418.08 53.7576 421.655 53.2727 425.17 53.2727C427.413 53.2727 429.989 53.5455 432.898 54.0909C435.837 54.6061 438.67 55.6818 441.398 57.3182C444.155 58.9545 446.443 61.4242 448.261 64.7273C450.08 68.0303 450.989 72.4545 450.989 78V124H440.261V114.545H439.716C438.989 116.061 437.777 117.682 436.08 119.409C434.383 121.136 432.125 122.606 429.307 123.818C426.489 125.03 423.049 125.636 418.989 125.636ZM420.625 116C424.867 116 428.443 115.167 431.352 113.5C434.292 111.833 436.504 109.682 437.989 107.045C439.504 104.409 440.261 101.636 440.261 98.7273V88.9091C439.807 89.4545 438.807 89.9545 437.261 90.4091C435.746 90.8333 433.989 91.2121 431.989 91.5455C430.019 91.8485 428.095 92.1212 426.216 92.3636C424.367 92.5758 422.867 92.7576 421.716 92.9091C418.928 93.2727 416.322 93.8636 413.898 94.6818C411.504 95.4697 409.564 96.6667 408.08 98.2727C406.625 99.8485 405.898 102 405.898 104.727C405.898 108.455 407.277 111.273 410.034 113.182C412.822 115.061 416.352 116 420.625 116ZM498.932 125.455C492.386 125.455 486.75 123.909 482.023 120.818C477.295 117.727 473.659 113.47 471.114 108.045C468.568 102.621 467.295 96.4242 467.295 89.4545C467.295 82.3636 468.598 76.1061 471.205 70.6818C473.841 65.2273 477.508 60.9697 482.205 57.9091C486.932 54.8182 492.447 53.2727 498.75 53.2727C503.659 53.2727 508.083 54.1818 512.023 56C515.962 57.8182 519.189 60.3636 521.705 63.6364C524.22 66.9091 525.78 70.7273 526.386 75.0909H515.659C514.841 71.9091 513.023 69.0909 510.205 66.6364C507.417 64.1515 503.659 62.9091 498.932 62.9091C494.75 62.9091 491.083 64 487.932 66.1818C484.811 68.3333 482.371 71.3788 480.614 75.3182C478.886 79.2273 478.023 83.8182 478.023 89.0909C478.023 94.4848 478.871 99.1818 480.568 103.182C482.295 107.182 484.72 110.288 487.841 112.5C490.992 114.712 494.689 115.818 498.932 115.818C501.72 115.818 504.25 115.333 506.523 114.364C508.795 113.394 510.72 112 512.295 110.182C513.871 108.364 514.992 106.182 515.659 103.636H526.386C525.78 107.758 524.28 111.47 521.886 114.773C519.523 118.045 516.386 120.652 512.477 122.591C508.598 124.5 504.083 125.455 498.932 125.455Z" fill="white"/>
<path d="M574.5 89.5002L550.363 69.9638C548.883 68.7658 546.695 68.9854 545.651 70.5778C543.688 73.5721 542.161 76.9256 541.184 80.573C536.254 98.9729 547.173 117.886 565.573 122.816C583.973 127.746 602.886 116.827 607.816 98.4269C612.746 80.027 601.827 61.1141 583.427 56.1838C574.347 53.7508 565.142 55.1776 557.554 59.4586" stroke="#8BF688" stroke-width="7" stroke-linecap="round"/>
</svg>
